<svg width="141.615" xmlns="http://www.w3.org/2000/svg" height="128" fill="none"><rect rx="0" ry="0" width="128" height="128" style="fill: rgb(177, 178, 181); fill-opacity: 0;" fill="none" class="fills"/><path d="m56.03 81.123-3.55-5.439L96.497 46.96l3.935 6.03-39.745 25.936-.022-.046-.985.477-3.65 1.766Zl-1.315.637H52.48V48.64h7.2v30.717" style="fill: rgb(175, 227, 254); fill-opacity: 1;" class="fills"/><path d="M15.16 98.841A59.702 59.702 0 0 1 4 64C4 30.885 30.885 4 64 4c14.261 0 27.367 4.986 37.668 13.31l-4.676 5.717C87.951 15.778 76.478 11.44 64 11.44c-29.141 0-52.8 23.659-52.8 52.8a52.525 52.525 0 0 0 8.547 28.796l-4.587 5.805Zm5.944 7.094a61.542 61.542 0 0 1-1.622-1.725l4.436-5.614a53.215 53.215 0 0 0 1.588 1.768l-4.402 5.571Zm7.299 6.356a59.074 59.074 0 0 1-2.327-1.809l4.349-5.503a53.538 53.538 0 0 0 2.323 1.811l-4.345 5.501Zm7.773 4.872a60.296 60.296 0 0 1-2.131-1.174l4.386-5.551c.711.395 1.432.773 2.162 1.136l-4.417 5.589Zm10.864-2.91A52.679 52.679 0 0 0 64 117.04c28.981 0 52.54-23.4 52.798-52.32h7.198C123.609 97.504 96.875 124 64 124a59.786 59.786 0 0 1-21.517-3.98l4.557-5.767Z" style="fill: rgb(225, 74, 109); fill-opacity: 1;" class="fills"/></svg>